<svg width="15" height="15" viewBox="0 0 15 15" fill="none" xmlns="http://www.w3.org/2000/svg">
<g clip-path="url(#clip0)">
<path d="M13.2283 10.3212C12.7595 10.0398 11.7843 9.45385 11.7843 7.9296C11.7843 6.64314 12.6452 5.99391 13.1076 5.64513L13.1173 5.63781C13.303 5.49783 13.3472 5.2372 13.2183 5.04363C12.1852 3.49244 10.4109 3.44764 10.0659 3.45408H10.0638C9.82722 3.45437 9.60143 3.48161 9.38737 3.52466C9.46643 3.4614 9.54316 3.39405 9.61695 3.3226C10.3561 2.60747 10.7623 1.55236 10.7309 0.426965C10.7242 0.189469 10.5297 0 10.292 0C9.4925 0 8.58351 0.477627 7.91964 1.24663C7.25078 2.02149 6.93832 2.94981 7.06278 3.79319C7.07303 3.86318 7.09997 3.92702 7.13863 3.98179C7.02149 3.94254 6.89762 3.89686 6.77521 3.85176C6.31017 3.68045 5.78276 3.48629 5.28903 3.48629C5.27907 3.48629 4.27521 3.49362 3.27281 4.1162C2.39604 4.66118 1.35059 5.79536 1.35059 8.1056C1.35059 9.30713 1.82001 10.9892 2.54656 12.3914C3.04849 13.3601 4.09013 14.9859 5.42784 14.9936H5.44219C6.41765 14.9936 7.22589 14.4175 7.77556 14.4175C8.71441 14.4175 9.04855 15 10.0638 15C10.974 15 11.856 14.3086 12.6857 12.9454C12.9902 12.4447 13.2271 11.9495 13.3721 11.6221C13.6488 10.9983 13.6488 10.9151 13.6488 10.8542C13.6488 10.574 13.435 10.4454 13.2283 10.3212ZM8.58468 1.8206C8.94517 1.40301 9.39937 1.09318 9.82956 0.956425C9.74727 1.63846 9.45911 2.25313 9.00608 2.69123C8.68864 2.99842 8.30765 3.19814 7.92081 3.26696C7.96181 2.78435 8.19257 2.2748 8.58468 1.8206ZM11.8926 12.5577C11.2657 13.5662 10.6161 14.1215 10.0638 14.1215C9.30391 14.1215 8.94869 13.539 7.77556 13.539C6.984 13.539 6.22876 14.1191 5.43282 14.115C4.81199 14.1115 4.00491 13.2962 3.32669 11.9872C2.65989 10.7008 2.22911 9.17711 2.22911 8.1056C2.22911 6.58867 2.72783 5.5031 3.71061 4.87876C4.47581 4.39294 5.25857 4.3657 5.29167 4.36482C5.9775 4.36658 6.92954 4.97364 7.62328 4.97364C8.24791 4.97364 9.08427 4.33261 10.0671 4.33261H10.0832C10.3215 4.32793 11.4469 4.35457 12.2376 5.2126C11.6789 5.6832 10.9058 6.52952 10.9058 7.9296C10.9058 9.83132 12.1085 10.6662 12.6766 11.0144C12.5351 11.357 12.2654 11.9582 11.8926 12.5577Z" fill="white"/>
</g>
<defs>
<clipPath id="clip0">
<rect width="15" height="15" fill="white"/>
</clipPath>
</defs>
</svg>
