<svg width="24" height="24" viewBox="0 0 24 24" fill="none" xmlns="http://www.w3.org/2000/svg">
<path opacity="0.5" d="M23.625 12C23.625 5.625 18.375 0.375 12 0.375C5.57812 0.375 0.375 5.625 0.375 12C0.375 18.4219 5.57812 23.625 12 23.625C18.375 23.625 23.625 18.4219 23.625 12ZM16.9688 10.3594C16.7812 11.4844 16.1719 12.0469 15.3281 12.2344C16.5 12.8438 17.0625 13.7344 16.5 15.3281C15.7969 17.2969 14.2031 17.4844 12 17.0625L11.4844 19.1719L10.2188 18.8438L10.7344 16.7812C10.4062 16.6875 10.0312 16.5938 9.70312 16.5L9.1875 18.6094L7.92188 18.2812L8.4375 16.1719C8.15625 16.0781 7.82812 15.9844 7.54688 15.9375L5.85938 15.5156L6.51562 14.0625C6.51562 14.0625 7.45312 14.2969 7.40625 14.2969C7.78125 14.3906 7.96875 14.1562 8.01562 13.9688L8.85938 10.6406C8.90625 10.6406 8.95312 10.6406 9 10.6875C8.95312 10.6406 8.90625 10.6406 8.85938 10.6406L9.42188 8.25C9.46875 7.96875 9.375 7.64062 8.85938 7.5L7.92188 7.26562L8.25 5.90625L10.0312 6.32812V6.375C10.2656 6.42188 10.5469 6.46875 10.8281 6.5625L11.3438 4.45312L12.6562 4.78125L12.1406 6.84375C12.4688 6.89062 12.7969 6.98438 13.125 7.07812L13.6406 5.01562L14.9062 5.34375L14.3906 7.45312C16.0312 7.96875 17.2031 8.8125 16.9688 10.3594ZM14.0625 14.4375C14.4375 12.7969 11.6719 12.375 10.8281 12.1406L10.125 14.9531C10.9688 15.1875 13.6406 16.0312 14.0625 14.4375ZM14.4375 10.3594C14.8125 8.85938 12.5156 8.48438 11.7656 8.34375L11.1562 10.875C11.8594 11.0625 14.0625 11.7656 14.4375 10.3594Z" fill="white"/>
</svg>
