<svg width="50" height="50" viewBox="0 0 50 50" fill="none" xmlns="http://www.w3.org/2000/svg">
<path d="M16.0858 21.146H11.222C10.8089 21.146 10.4746 21.4803 10.4746 21.8934V26.7572C10.4746 27.1697 10.8089 27.5046 11.222 27.5046H16.0858C16.4988 27.5046 16.8332 27.1697 16.8332 26.7572V21.8934C16.8332 21.4808 16.4988 21.146 16.0858 21.146ZM15.3384 26.0098H11.9693V22.6407H15.3384V26.0098Z" fill="#3E9E57"/>
<path d="M27.4305 21.146H22.5667C22.1537 21.146 21.8193 21.4803 21.8193 21.8934V26.7572C21.8193 27.1697 22.1537 27.5046 22.5667 27.5046H27.4305C27.8431 27.5046 28.1779 27.1697 28.1779 26.7572V21.8934C28.1779 21.4808 27.8431 21.146 27.4305 21.146ZM26.6832 26.0098H23.3141V22.6407H26.6832V26.0098Z" fill="#3E9E57"/>
<path d="M38.4247 21.146H33.5608C33.1483 21.146 32.8135 21.4803 32.8135 21.8934V26.7572C32.8135 27.1697 33.1483 27.5046 33.5608 27.5046H38.4247C38.8372 27.5046 39.172 27.1697 39.172 26.7572V21.8934C39.172 21.4808 38.8372 21.146 38.4247 21.146ZM37.6773 26.0098H34.3082V22.6407H37.6773V26.0098Z" fill="#3E9E57"/>
<path d="M16.0858 32.2246H11.222C10.8089 32.2246 10.4746 32.5594 10.4746 32.972V37.8358C10.4746 38.2483 10.8089 38.5832 11.222 38.5832H16.0858C16.4988 38.5832 16.8332 38.2483 16.8332 37.8358V32.972C16.8332 32.5594 16.4988 32.2246 16.0858 32.2246ZM15.3384 37.0884H11.9693V33.7193H15.3384V37.0884Z" fill="#3E9E57"/>
<path d="M27.4305 32.2246H22.5667C22.1537 32.2246 21.8193 32.5594 21.8193 32.972V37.8358C21.8193 38.2483 22.1537 38.5832 22.5667 38.5832H27.4305C27.8431 38.5832 28.1779 38.2483 28.1779 37.8358V32.972C28.1779 32.5594 27.8431 32.2246 27.4305 32.2246ZM26.6832 37.0884H23.3141V33.7193H26.6832V37.0884Z" fill="#3E9E57"/>
<path d="M38.4247 32.2246H33.5608C33.1483 32.2246 32.8135 32.5594 32.8135 32.972V37.8358C32.8135 38.2483 33.1483 38.5832 33.5608 38.5832H38.4247C38.8372 38.5832 39.172 38.2483 39.172 37.8358V32.972C39.172 32.5594 38.8372 32.2246 38.4247 32.2246ZM37.6773 37.0884H34.3082V33.7193H37.6773V37.0884Z" fill="#3E9E57"/>
<path d="M44.3435 6.67361H39.4074C39.4009 6.67361 39.3955 6.6751 39.389 6.6756V5.68012C39.389 4.05186 38.0647 2.72754 36.4364 2.72754C34.8082 2.72754 33.4838 4.05236 33.4838 5.68012V6.67361H27.922V5.68012C27.922 4.05186 26.5976 2.72754 24.9694 2.72754C23.3411 2.72754 22.0168 4.05236 22.0168 5.68012V6.67361H16.4544V5.68012C16.4544 4.05186 15.1301 2.72754 13.5019 2.72754C11.8736 2.72754 10.5493 4.05236 10.5493 5.68012V6.67411C10.5468 6.67411 10.5443 6.67361 10.5418 6.67361H5.60674C5.19369 6.67361 4.85938 7.00793 4.85938 7.42097V46.1572C4.85938 46.5698 5.19369 46.9046 5.60674 46.9046H44.3435C44.756 46.9046 45.0909 46.5698 45.0909 46.1572V7.42097C45.0909 7.00793 44.756 6.67361 44.3435 6.67361ZM34.9786 5.68012C34.9786 4.87596 35.6322 4.22226 36.4364 4.22226C37.2406 4.22226 37.8943 4.87596 37.8943 5.68012V9.80406C37.8943 10.6077 37.2406 11.2619 36.4364 11.2619C35.6322 11.2619 34.9786 10.6082 34.9786 9.80406V5.68012ZM24.9694 4.22226C25.7731 4.22226 26.4272 4.87596 26.4272 5.68012V9.80406C26.4272 10.6077 25.7735 11.2619 24.9694 11.2619C24.1652 11.2619 23.5115 10.6082 23.5115 9.80406V7.49073C23.5135 7.46731 23.5185 7.44489 23.5185 7.42047C23.5185 7.39606 23.5135 7.37364 23.5115 7.35022V5.68012C23.5115 4.87596 24.1652 4.22226 24.9694 4.22226ZM12.044 5.68012C12.044 4.87596 12.6977 4.22226 13.5019 4.22226C14.3055 4.22226 14.9597 4.87596 14.9597 5.68012V9.80406C14.9597 10.6077 14.306 11.2619 13.5019 11.2619C12.6977 11.2619 12.044 10.6082 12.044 9.80406V5.68012ZM43.5961 45.4099H6.3541V8.16833H10.5418C10.5443 8.16833 10.5468 8.16783 10.5493 8.16783V9.80456C10.5493 11.4328 11.8741 12.7571 13.5019 12.7571C15.1296 12.7571 16.4544 11.4328 16.4544 9.80456V8.16883H22.0168V9.80456C22.0168 11.4328 23.3416 12.7571 24.9694 12.7571C26.5971 12.7571 27.922 11.4328 27.922 9.80456V8.16883H33.4838V9.80456C33.4838 11.4328 34.8082 12.7571 36.4364 12.7571C38.0647 12.7571 39.389 11.4328 39.389 9.80456V8.16634C39.3955 8.16634 39.4009 8.16833 39.4074 8.16833H43.5961V45.4099Z" fill="#3E9E57"/>
</svg>
