<svg width="35" height="35" viewBox="0 0 35 35" fill="none" xmlns="http://www.w3.org/2000/svg">
<path d="M31.0846 19.4142C30.7278 19.0086 30.2357 18.7666 29.6993 18.7328C29.1688 18.7007 28.6551 18.8754 28.254 19.2294L23.8083 23.1973C23.7953 23.122 23.7796 23.0502 23.7615 22.9842C23.5645 22.2717 23.0458 21.7779 22.6186 21.6042C21.7369 21.2481 20.5173 21.4148 19.3391 21.5759C18.5593 21.6826 17.7519 21.7922 17.2472 21.7029C16.9678 21.653 16.6819 21.5267 16.3512 21.381C15.4549 20.9851 14.2272 20.4438 11.9424 20.9394C10.7252 21.2048 9.78391 21.8849 9.14566 22.4977V21.4507C9.14566 21.1619 8.91163 20.9276 8.62251 20.9276H3.81124C3.52211 20.9276 3.28809 21.1619 3.28809 21.4507V33.2436C3.28809 33.5324 3.52211 33.7668 3.81124 33.7668H8.62251C8.91163 33.7668 9.14566 33.5324 9.14566 33.2436V30.8336C10.3029 31.091 12.7715 31.5845 14.6736 31.5845C17.0526 31.5845 19.9676 31.0446 21.762 30.2718C25.0642 28.8512 30.5018 22.722 30.9423 22.2208C31.3281 21.8685 31.5568 21.3883 31.5872 20.8648C31.6179 20.3322 31.4393 19.8167 31.0846 19.4142ZM8.09935 32.7212H4.33439V21.9742H8.09935V32.7212ZM30.2239 21.4608C30.2068 21.4755 30.1907 21.4915 30.1761 21.5083C30.1196 21.5728 24.5016 27.9545 21.348 29.3116C19.6701 30.0343 16.9256 30.5393 14.6736 30.5393C12.7603 30.5393 10.1327 29.9858 9.14566 29.7612V24.0853C9.43374 23.6828 10.5125 22.3223 12.1646 21.9624C14.1163 21.5386 15.0789 21.9637 15.9285 22.3387C16.3048 22.5047 16.6602 22.6613 17.0627 22.7331C17.7299 22.8521 18.5799 22.7359 19.4804 22.6128C20.4758 22.4764 21.6037 22.323 22.2255 22.5741C22.3828 22.6383 22.6507 22.8943 22.7529 23.2636C22.854 23.6288 22.764 24.0023 22.4896 24.3744L22.0508 24.7661C22.0466 24.7699 22.0449 24.7755 22.041 24.7794C20.6072 25.7688 16.7296 26.9515 15.0224 26.8165C14.7333 26.7938 14.4829 27.0104 14.4609 27.2985C14.4389 27.5866 14.6545 27.8381 14.9425 27.86C15.05 27.8681 15.1644 27.8719 15.285 27.8719C17.5761 27.8719 22.1115 26.4301 23.2485 25.1002L28.9494 20.012C29.1385 19.845 29.3791 19.7609 29.6341 19.7773C29.8911 19.7934 30.1272 19.9098 30.2995 20.1059C30.4711 20.3008 30.5576 20.5491 30.5426 20.8051C30.5276 21.0597 30.4146 21.2924 30.2239 21.4608Z" fill="#3E9E57"/>
<path d="M10.2781 7.64238H11.4367V18.2021C11.4367 18.4908 11.6707 18.7252 11.9598 18.7252H23.0423C23.3311 18.7252 23.5655 18.4908 23.5655 18.2021V7.64238H24.7258C24.9511 7.64238 25.151 7.49834 25.2221 7.2849C25.2933 7.0711 25.22 6.83603 25.0401 6.70071L17.724 1.21318C17.536 1.07263 17.2772 1.07437 17.0913 1.21702L9.95896 6.70454C9.78144 6.84126 9.71064 7.07563 9.78283 7.28769C9.85468 7.50009 10.0542 7.64238 10.2781 7.64238ZM17.4142 2.28878L23.1567 6.59608H23.0427C22.7539 6.59608 22.5195 6.8301 22.5195 7.11923V17.6789H12.483V7.11923C12.483 6.8301 12.249 6.59608 11.9598 6.59608H11.8158L17.4142 2.28878Z" fill="#3E9E57"/>
<path d="M15.4968 15.1878H19.5059C19.7947 15.1878 20.029 14.9538 20.029 14.6646V8.6672C20.029 8.37807 19.7947 8.14404 19.5059 8.14404H15.4968C15.2077 8.14404 14.9736 8.37807 14.9736 8.6672V14.6646C14.9736 14.9538 15.208 15.1878 15.4968 15.1878ZM16.0199 9.19035H18.9827V14.1415H16.0199V9.19035Z" fill="#3E9E57"/>
</svg>
