<svg width="50" height="50" viewBox="0 0 50 50" fill="none" xmlns="http://www.w3.org/2000/svg">
<path d="M29.3405 19.6598C29.4103 19.6268 29.4744 19.583 29.5305 19.5298L41.5305 7.52985C41.6629 7.38767 41.7351 7.19962 41.7316 7.00532C41.7282 6.81102 41.6495 6.62564 41.5121 6.48822C41.3747 6.35081 41.1893 6.2721 40.995 6.26867C40.8007 6.26524 40.6126 6.33737 40.4705 6.46985L28.4705 18.4698C28.412 18.5312 28.3647 18.6023 28.3305 18.6798C25.2255 16.1748 20.5255 16.4998 17.5005 19.5448L2.05547 30.9998C1.96971 31.0636 1.89856 31.145 1.84679 31.2384C1.79503 31.3319 1.76384 31.4354 1.75532 31.5419C1.7468 31.6485 1.76114 31.7556 1.79738 31.8561C1.83363 31.9566 1.89093 32.0483 1.96547 32.1248L16.3105 46.7748C16.3802 46.846 16.4635 46.9026 16.5553 46.9412C16.6472 46.9798 16.7458 46.9998 16.8455 46.9998H16.9055C17.0155 46.9914 17.1222 46.9588 17.2181 46.9043C17.3141 46.8499 17.3968 46.7749 17.4605 46.6848L28.9605 30.4998C29.7031 29.7371 30.2877 28.8352 30.6807 27.8459C31.0737 26.8565 31.2674 25.7993 31.2505 24.7348C31.2342 22.8705 30.5575 21.0723 29.3405 19.6598ZM16.7555 45.0848L12.8805 41.1298C12.9345 41.1029 12.9849 41.0693 13.0305 41.0298L20.0305 34.0298C20.163 33.8877 20.2351 33.6996 20.2316 33.5053C20.2282 33.311 20.1495 33.1256 20.0121 32.9882C19.8747 32.8508 19.6893 32.7721 19.495 32.7687C19.3007 32.7652 19.1126 32.8374 18.9705 32.9698L11.9705 39.9698C11.9352 40.0129 11.905 40.0599 11.8805 40.1098L8.43547 36.6098C8.46886 36.5908 8.50063 36.5691 8.53047 36.5448L15.5305 29.5448C15.6629 29.4027 15.7351 29.2146 15.7316 29.0203C15.7282 28.826 15.6495 28.6406 15.5121 28.5032C15.3747 28.3658 15.1893 28.2871 14.995 28.2837C14.8007 28.2802 14.6126 28.3524 14.4705 28.4848L7.47047 35.4848C7.45032 35.5102 7.43194 35.5369 7.41547 35.5648L3.64047 31.6948L18.0005 21.0548L27.2205 30.2798H27.2505L16.7555 45.0848ZM28.1705 29.0848L19.1705 20.0848C21.7855 17.9548 25.5205 17.9598 27.8355 20.2148C28.4421 20.8051 28.9254 21.5099 29.2576 22.2884C29.5898 23.0668 29.7641 23.9035 29.7705 24.7498C29.7853 26.3494 29.2164 27.8995 28.1705 29.1098V29.0848Z" fill="#3E9E57"/>
<path d="M41.2046 20.4099C41.6137 21.033 41.872 21.7429 41.9587 22.4833C42.0455 23.2236 41.9585 23.974 41.7046 24.6749C40.7046 27.4149 37.4646 28.8999 34.4646 27.9749C34.2743 27.9165 34.0686 27.9362 33.8928 28.0295C33.717 28.1228 33.5855 28.2821 33.5271 28.4724C33.4688 28.6627 33.4884 28.8683 33.5817 29.0442C33.675 29.22 33.8343 29.3515 34.0246 29.4099C34.7537 29.6332 35.5121 29.7461 36.2746 29.7449C39.2746 29.7449 42.1096 27.9749 43.1196 25.1799C43.4524 24.2613 43.5665 23.2778 43.4528 22.3075C43.3391 21.3371 43.0008 20.4066 42.4646 19.5899C42.4111 19.5071 42.3418 19.4358 42.2607 19.3798C42.1796 19.3238 42.0883 19.2844 41.9919 19.2638C41.8956 19.2431 41.7961 19.2416 41.6992 19.2594C41.6023 19.2772 41.5099 19.3139 41.4271 19.3674C41.3444 19.4209 41.273 19.4902 41.217 19.5713C41.1611 19.6524 41.1217 19.7437 41.101 19.84C41.0803 19.9364 41.0788 20.0359 41.0966 20.1328C41.1144 20.2297 41.1511 20.3221 41.2046 20.4049V20.4099Z" fill="#3E9E57"/>
<path d="M44.7498 32.295C44.6569 32.2617 44.5584 32.247 44.4598 32.2519C44.3612 32.2567 44.2646 32.281 44.1754 32.3232C44.0862 32.3655 44.0062 32.425 43.9401 32.4982C43.8739 32.5714 43.8229 32.657 43.7898 32.75C43.5198 33.461 43.0988 34.105 42.5559 34.6376C42.0129 35.1702 41.3609 35.5788 40.6448 35.835C37.7548 36.945 34.3998 35.765 33.1698 33.21C33.1302 33.1166 33.072 33.0322 32.9988 32.962C32.9255 32.8917 32.8388 32.8371 32.7439 32.8013C32.6489 32.7655 32.5477 32.7494 32.4463 32.7539C32.345 32.7584 32.2456 32.7834 32.1541 32.8274C32.0627 32.8714 31.9812 32.9335 31.9144 33.01C31.8477 33.0864 31.7972 33.1756 31.766 33.2722C31.7347 33.3687 31.7234 33.4706 31.7326 33.5716C31.7419 33.6727 31.7716 33.7708 31.8198 33.86C32.9848 36.285 35.6348 37.745 38.4048 37.745C39.3526 37.7492 40.2931 37.5798 41.1798 37.245C42.0961 36.9071 42.9282 36.3745 43.6187 35.6839C44.3093 34.9933 44.8419 34.1613 45.1798 33.245C45.2454 33.0618 45.2372 32.8603 45.1569 32.6831C45.0767 32.5058 44.9307 32.3667 44.7498 32.295Z" fill="#3E9E57"/>
<path d="M39.7947 42.5448C39.1437 43.0333 38.4005 43.3848 37.6099 43.5782C36.8193 43.7715 35.9977 43.8027 35.1947 43.6698C34.4423 43.5547 33.7202 43.2912 33.0704 42.8947C32.4206 42.4981 31.8561 41.9764 31.4097 41.3598C31.0288 40.8262 30.7595 40.2214 30.6177 39.5813C30.4759 38.9413 30.4647 38.2792 30.5847 37.6348C30.6028 37.5379 30.6016 37.4385 30.5812 37.3421C30.5608 37.2457 30.5217 37.1543 30.466 37.073C30.4102 36.9918 30.3391 36.9223 30.2565 36.8685C30.1739 36.8148 30.0816 36.7778 29.9847 36.7598C29.8879 36.7417 29.7884 36.7429 29.692 36.7633C29.5957 36.7837 29.5042 36.8228 29.423 36.8786C29.3417 36.9343 29.2722 37.0054 29.2185 37.088C29.1648 37.1706 29.1278 37.2629 29.1097 37.3598C28.953 38.2005 28.9673 39.0643 29.1521 39.8993C29.3368 40.7344 29.688 41.5236 30.1847 42.2198C30.7464 42.999 31.4573 43.6589 32.2762 44.161C33.0951 44.6631 34.0055 44.9975 34.9547 45.1448C35.3581 45.2108 35.7661 45.2442 36.1747 45.2448C37.8078 45.2513 39.3983 44.7246 40.7047 43.7448C40.7886 43.6872 40.8598 43.6131 40.9141 43.5272C40.9684 43.4412 41.0047 43.3451 41.0207 43.2446C41.0366 43.1442 41.0321 43.0415 41.0071 42.9429C40.9822 42.8443 40.9375 42.7518 40.8758 42.6711C40.814 42.5903 40.7364 42.5229 40.6478 42.473C40.5592 42.4232 40.4613 42.3918 40.3602 42.381C40.2591 42.3701 40.1568 42.3799 40.0596 42.4098C39.9624 42.4396 39.8723 42.489 39.7947 42.5548V42.5448Z" fill="#3E9E57"/>
</svg>
