<svg width="35" height="35" viewBox="0 0 35 35" fill="none" xmlns="http://www.w3.org/2000/svg">
<path d="M29.1716 5.65381H5.82871C5.53856 5.65381 5.30371 5.88866 5.30371 6.17881V16.0576C5.30371 16.3477 5.53856 16.5826 5.82871 16.5826H7.62876V28.821C7.62876 29.1108 7.86361 29.346 8.15376 29.346H27.0699C27.3597 29.346 27.5949 29.1108 27.5949 28.821V16.5826H29.1716C29.4614 16.5826 29.6966 16.3477 29.6966 16.0576V6.17881C29.6966 5.88866 29.4614 5.65381 29.1716 5.65381ZM26.5449 28.296H8.67876V16.5826H14.318C14.4933 16.5826 14.6575 16.4951 14.7548 16.3488L17.6118 12.0644L20.4689 16.3488C20.5662 16.4947 20.7303 16.5826 20.9057 16.5826H26.5445V28.296H26.5449ZM28.6466 15.5326H21.1867L18.0486 10.8268C17.8537 10.5346 17.3696 10.5349 17.175 10.8268L14.0369 15.5326H6.35371V6.70381H28.6466V15.5326Z" fill="#3E9E57"/>
<path d="M20.0322 18.333H15.191C14.9009 18.333 14.666 18.5682 14.666 18.858V26.1219C14.666 26.4117 14.9009 26.6469 15.191 26.6469H20.0326C20.3224 26.6469 20.5576 26.4117 20.5576 26.1219V18.858C20.5572 18.5682 20.322 18.333 20.0322 18.333ZM19.5072 25.5969H15.716V19.383H19.5076V25.5969H19.5072Z" fill="#3E9E57"/>
</svg>
