<svg width="35" height="35" viewBox="0 0 35 35" fill="none" xmlns="http://www.w3.org/2000/svg">
<path d="M30.0115 5.60059H16.3632C16.0731 5.60059 15.8382 5.83544 15.8382 6.12559V13.0363L4.81009 17.0067C4.60184 17.0816 4.46289 17.2794 4.46289 17.5006V28.8735C4.46289 29.1633 4.69774 29.3985 4.98789 29.3985L16.3632 29.3999H30.0115C30.3013 29.3999 30.5365 29.1647 30.5365 28.8749V6.12559C30.5365 5.83544 30.3013 5.60059 30.0115 5.60059ZM5.51289 17.8698L15.8382 14.1521V28.3499L5.51289 28.3485V17.8698ZM29.4865 28.3499H16.8882V6.65059H29.4865V28.3499Z" fill="#3E9E57"/>
<path d="M20.9107 15.7497H25.4604C25.7502 15.7497 25.9854 15.5148 25.9854 15.2247V10.6754C25.9854 10.3852 25.7502 10.1504 25.4604 10.1504H20.9107C20.6209 10.1504 20.3857 10.3852 20.3857 10.6754V15.2247C20.3857 15.5148 20.6209 15.7497 20.9107 15.7497ZM21.4357 11.2004H24.9354V14.6997H21.4357V11.2004Z" fill="#3E9E57"/>
<path d="M25.4623 19.25H20.9137C20.6239 19.25 20.3887 19.4852 20.3887 19.775V24.3243C20.3887 24.6141 20.6239 24.8493 20.9137 24.8493H25.4623C25.7521 24.8493 25.9873 24.6141 25.9873 24.3243V19.775C25.9873 19.4852 25.7521 19.25 25.4623 19.25ZM24.9373 23.7993H21.4387V20.3H24.9373V23.7993Z" fill="#3E9E57"/>
</svg>
