<svg width="25" height="25" viewBox="0 0 25 25" fill="none" xmlns="http://www.w3.org/2000/svg">
<path d="M21.545 6.72148L14.9682 0.144727C14.8755 0.0520508 14.7499 0 14.6188 0H5.35156C4.22612 0 3.31055 0.915576 3.31055 2.04102V22.959C3.31055 24.0844 4.22612 25 5.35156 25H19.6486C20.7741 25 21.6896 24.0844 21.6896 22.959V7.07085C21.6896 6.93984 21.6376 6.81411 21.545 6.72148ZM15.1129 1.68696L20.0027 6.57666H16.1657C15.5852 6.57666 15.113 6.10439 15.113 5.52383V1.68696H15.1129ZM20.7015 22.959C20.7015 23.5395 20.2292 24.0118 19.6486 24.0118H5.35156C4.77104 24.0118 4.29873 23.5395 4.29873 22.959V2.04102C4.29873 1.4605 4.77104 0.988184 5.35156 0.988184H14.1247V5.52393C14.1247 6.64936 15.0402 7.56494 16.1657 7.56494H20.7015V22.959Z" fill="white"/>
<path d="M16.453 12.5498H8.5478C8.27495 12.5498 8.05371 12.771 8.05371 13.0439C8.05371 13.3167 8.27495 13.538 8.5478 13.538H16.453C16.7259 13.538 16.9471 13.3167 16.9471 13.0439C16.9471 12.771 16.7259 12.5498 16.453 12.5498Z" fill="white"/>
<path d="M16.453 14.7568H8.5478C8.27495 14.7568 8.05371 14.9781 8.05371 15.2509C8.05371 15.5238 8.27495 15.745 8.5478 15.745H16.453C16.7259 15.745 16.9471 15.5238 16.9471 15.2509C16.9471 14.9781 16.7259 14.7568 16.453 14.7568Z" fill="white"/>
<path d="M16.453 16.9629H8.5478C8.27495 16.9629 8.05371 17.1841 8.05371 17.457C8.05371 17.7298 8.27495 17.9511 8.5478 17.9511H16.453C16.7259 17.9511 16.9471 17.7298 16.9471 17.457C16.9471 17.1841 16.7259 16.9629 16.453 16.9629Z" fill="white"/>
<path d="M13.8838 19.1699H8.5478C8.27495 19.1699 8.05371 19.3912 8.05371 19.664C8.05371 19.9369 8.27495 20.1581 8.5478 20.1581H13.8838C14.1567 20.1581 14.3779 19.9369 14.3779 19.664C14.3779 19.3912 14.1567 19.1699 13.8838 19.1699Z" fill="white"/>
</svg>
