<svg width="23" height="23" viewBox="0 0 23 23" fill="none" xmlns="http://www.w3.org/2000/svg">
<path d="M19.6317 3.36824C17.4597 1.19622 14.5718 0 11.5 0C8.4282 0 5.54026 1.19622 3.36824 3.36824C1.19618 5.5403 0 8.42824 0 11.5C0 14.5718 1.19618 17.4597 3.36824 19.6317C5.5403 21.8038 8.4282 23 11.5 23C14.5718 23 17.4597 21.8038 19.6317 19.6317C21.8038 17.4597 23 14.5718 23 11.5C23 8.42824 21.8038 5.54035 19.6317 3.36824ZM11.5 21.6523C5.90197 21.6523 1.34766 17.098 1.34766 11.5C1.34766 5.90197 5.90197 1.34766 11.5 1.34766C17.098 1.34766 21.6523 5.90197 21.6523 11.5C21.6523 17.098 17.098 21.6523 11.5 21.6523Z" fill="white"/>
<path d="M16.9944 7.81057C16.7312 7.54751 16.3046 7.54751 16.0415 7.81062L10.0912 13.7609L6.95889 10.6287C6.69578 10.3655 6.26911 10.3655 6.00596 10.6287C5.74281 10.8918 5.74281 11.3184 6.00596 11.5816L9.61467 15.1903C9.74625 15.3219 9.9187 15.3876 10.0911 15.3876C10.2635 15.3876 10.436 15.3218 10.5676 15.1903L16.9944 8.7635C17.2575 8.50039 17.2575 8.07372 16.9944 7.81057Z" fill="white"/>
</svg>
