<svg width="25" height="25" viewBox="0 0 25 25" fill="none" xmlns="http://www.w3.org/2000/svg">
<g clip-path="url(#clip0)">
<path d="M24.8256 8.98098L22.0326 1.71908C21.5033 0.346284 19.9613 -0.337511 18.5886 0.191751C18.5686 0.199452 18.5488 0.20736 18.529 0.215529L4.57126 6.00141C3.24223 6.54659 2.58903 8.05097 3.09815 9.39427L3.48194 10.4187H2.60157C1.16545 10.4203 0.00161297 11.5841 0 13.0202V22.3859C0.00161297 23.822 1.16545 24.9858 2.60157 24.9874H20.2922C21.7283 24.9858 22.8922 23.822 22.8938 22.3859V13.0202C22.893 12.879 22.8804 12.7381 22.8563 12.599L23.3396 12.4033C24.6805 11.8537 25.3395 10.336 24.8256 8.98098ZM2.60157 11.2512H20.2922C21.2265 11.2539 21.9972 11.9835 22.0509 12.9162H0.842908C0.896604 11.9834 1.66729 11.2538 2.60157 11.2512ZM6.7853 8.74372L9.56752 7.35219L10.1394 8.78285L7.35723 10.174L6.7853 8.74372ZM22.0613 22.3859C22.0601 23.3625 21.2688 24.1538 20.2922 24.155H2.60157C1.62499 24.1538 0.833646 23.3625 0.832501 22.3859V17.0787H22.0613V22.3859ZM22.0613 16.2462H0.832501V13.7487H22.0613V16.2462ZM23.0274 11.6342L22.5924 11.8102C22.1431 10.9557 21.2577 10.4201 20.2922 10.4187H8.72961L10.8546 9.35602C11.0483 9.2593 11.1356 9.03015 11.0552 8.82905L10.1723 6.62292C10.0869 6.40949 9.84474 6.30564 9.63131 6.39097C9.62054 6.39529 9.60998 6.40002 9.59962 6.40522L6.07023 8.17096C5.87663 8.26784 5.78958 8.49693 5.87002 8.69793L6.5585 10.4187H4.37063L3.87779 9.10419C3.5284 8.18126 3.97717 7.14792 4.89011 6.77319L18.8474 0.98731C19.7805 0.600405 20.8506 1.04314 21.2375 1.97622C21.2436 1.99073 21.2494 2.00535 21.255 2.02003L24.048 9.28193C24.4014 10.213 23.9488 11.2562 23.0274 11.6342Z" fill="white"/>
<path d="M14.9738 22.9846C15.7495 23.4353 16.7073 23.4353 17.483 22.9846C18.6757 23.6775 20.2042 23.2724 20.8971 22.0797C21.59 20.887 21.1849 19.3585 19.9922 18.6656C19.6094 18.4432 19.1744 18.3265 18.7318 18.3276C18.2929 18.3278 17.862 18.4444 17.483 18.6656C16.2903 17.9727 14.7618 18.3778 14.0689 19.5704C13.376 20.7631 13.7811 22.2917 14.9738 22.9846ZM18.179 19.2617C18.356 19.1964 18.543 19.1621 18.7318 19.1601C19.6513 19.1601 20.3968 19.9056 20.3968 20.8251C20.3968 21.7447 19.6513 22.4901 18.7318 22.4901C18.543 22.4881 18.356 22.4538 18.179 22.3886C18.9159 21.4765 18.9159 20.1737 18.179 19.2617ZM17.483 19.7354C18.038 20.3559 18.038 21.2943 17.483 21.9149C16.928 21.2943 16.928 20.3558 17.483 19.7354ZM16.2343 19.1601C16.423 19.162 16.61 19.1964 16.787 19.2617C16.0501 20.1737 16.0501 21.4766 16.787 22.3886C16.61 22.4538 16.423 22.4881 16.2343 22.4901C15.3147 22.4901 14.5693 21.7447 14.5693 20.8251C14.5693 19.9055 15.3147 19.1601 16.2343 19.1601Z" fill="white"/>
<path d="M17.5583 8.60254L17.8965 9.36328L21.8675 7.59808L21.5294 6.83734L17.5583 8.60254Z" fill="white"/>
<path d="M20.6431 5.07617L14.9072 7.72363L15.256 8.47917L20.9918 5.8317L20.6431 5.07617Z" fill="white"/>
</g>
<defs>
<clipPath id="clip0">
<rect width="25" height="25" fill="white"/>
</clipPath>
</defs>
</svg>
