<svg width="50" height="50" viewBox="0 0 50 50" fill="none" xmlns="http://www.w3.org/2000/svg">
<path d="M44.4056 27.7348C43.8959 27.1553 43.1929 26.8095 42.4266 26.7612C41.6688 26.7154 40.9349 26.965 40.3619 27.4707L34.0108 33.1392C33.9924 33.0316 33.97 32.9289 33.944 32.8348C33.6625 31.8169 32.9217 31.1114 32.3113 30.8632C31.0518 30.3545 29.3094 30.5927 27.6263 30.8229C26.5123 30.9753 25.3589 31.1318 24.6379 31.0042C24.2388 30.933 23.8302 30.7526 23.3579 30.5444C22.0774 29.9789 20.3236 29.2056 17.0596 29.9136C15.3208 30.2927 13.976 31.2643 13.0643 32.1397V30.644C13.0643 30.2315 12.7299 29.8966 12.3169 29.8966H5.44365C5.03061 29.8966 4.69629 30.2315 4.69629 30.644V47.491C4.69629 47.9036 5.03061 48.2384 5.44365 48.2384H12.3169C12.7299 48.2384 13.0643 47.9036 13.0643 47.491V44.0482C14.7174 44.4159 18.244 45.1209 20.9614 45.1209C24.3599 45.1209 28.5242 44.3496 31.0876 43.2455C35.805 41.2162 43.5731 32.4601 44.2023 31.7441C44.7534 31.2409 45.0802 30.5548 45.1236 29.807C45.1674 29.0461 44.9123 28.3097 44.4056 27.7348ZM11.5695 46.7447H6.19101V31.3919H11.5695V46.7447ZM43.176 30.6585C43.1515 30.6794 43.1286 30.7023 43.1077 30.7262C43.027 30.8184 35.0013 39.9352 30.4962 41.8739C28.0992 42.9062 24.1785 43.6277 20.9614 43.6277C18.228 43.6277 14.4743 42.837 13.0643 42.5161V34.4077C13.4758 33.8327 15.0169 31.8891 17.377 31.3749C20.1652 30.7696 21.5403 31.3769 22.754 31.9125C23.2916 32.1497 23.7994 32.3734 24.3743 32.476C25.3275 32.6459 26.5417 32.48 27.8281 32.3041C29.2501 32.1093 30.8614 31.8901 31.7498 32.2488C31.9745 32.3405 32.3571 32.7062 32.5031 33.2339C32.6476 33.7555 32.5191 34.2891 32.127 34.8208L31.5002 35.3803C31.4942 35.3858 31.4917 35.3937 31.4862 35.3992C29.438 36.8127 23.8985 38.5023 21.4596 38.3094C21.0466 38.2771 20.6888 38.5865 20.6574 38.998C20.6261 39.4096 20.934 39.7688 21.3455 39.8002C21.499 39.8116 21.6624 39.8171 21.8348 39.8171C25.1077 39.8171 31.5869 37.7574 33.2111 35.8576L41.3554 28.5888C41.6254 28.3501 41.9692 28.23 42.3334 28.2534C42.7006 28.2764 43.0379 28.4428 43.2841 28.7228C43.5292 29.0013 43.6528 29.3561 43.6313 29.7218C43.6099 30.0855 43.4485 30.4178 43.176 30.6585Z" fill="#3E9E57"/>
<path d="M14.682 10.918H16.3372V26.0033C16.3372 26.4158 16.6715 26.7507 17.0845 26.7507H32.9166C33.3292 26.7507 33.664 26.4158 33.664 26.0033V10.918H35.3216C35.6435 10.918 35.929 10.7123 36.0306 10.4073C36.1323 10.1019 36.0277 9.76611 35.7706 9.57279L25.319 1.73346C25.0504 1.53267 24.6807 1.53516 24.4151 1.73894L14.2261 9.57827C13.9725 9.77358 13.8714 10.1084 13.9745 10.4113C14.0771 10.7148 14.3621 10.918 14.682 10.918ZM24.8765 3.27004L33.0801 9.42332H32.9171C32.5046 9.42332 32.1698 9.75764 32.1698 10.1707V25.2559H17.8319V10.1707C17.8319 9.75764 17.4976 9.42332 17.0845 9.42332H16.8787L24.8765 3.27004Z" fill="#3E9E57"/>
<path d="M22.138 21.6977H27.8653C28.2778 21.6977 28.6126 21.3634 28.6126 20.9504V12.3826C28.6126 11.9696 28.2778 11.6353 27.8653 11.6353H22.138C21.7249 11.6353 21.3906 11.9696 21.3906 12.3826V20.9504C21.3906 21.3634 21.7254 21.6977 22.138 21.6977ZM22.8853 13.13H27.1179V20.203H22.8853V13.13Z" fill="#3E9E57"/>
</svg>
