<svg width="15" height="15" viewBox="0 0 15 15" fill="none" xmlns="http://www.w3.org/2000/svg">
<g clip-path="url(#clip0)">
<path d="M0.625235 13.359C0.625235 13.8122 0.81461 14.2265 1.05836 14.4565C1.27961 14.7603 1.79961 14.9997 2.25774 14.9997C2.52836 14.9997 2.80149 14.9322 3.05211 14.7934L10.5065 10.6272C10.5184 10.6203 10.524 10.609 10.5346 10.6015C10.9634 10.4122 11.7684 9.90778 13.5352 8.93403H13.5359C14.6534 8.30715 14.6546 6.6934 13.5352 6.06528C11.879 5.21965 11.074 4.63653 10.5952 4.4134C10.0946 4.0584 8.82649 3.42153 6.06711 1.87465C2.56399 -0.0878496 2.02149 -0.42535 1.17899 0.410275C0.291485 0.777151 0.726485 3.2309 0.625235 13.359ZM7.04836 7.48528C6.98524 7.54715 1.62149 13.2822 1.56274 13.3447C1.65461 4.14965 1.47836 2.8259 1.56836 1.66028C1.62649 1.72278 6.83711 7.28278 7.04836 7.48528ZM2.17899 14.0578C9.39336 6.48215 7.38774 8.59153 7.73586 8.20465C7.79524 8.26778 9.64274 10.2278 9.52461 10.1028C2.38711 14.0378 2.59461 14.1065 2.17899 14.0578ZM13.0771 8.1159L10.3684 9.6309L8.35961 7.49965L10.3684 5.3684L13.0771 6.8834C13.5571 7.15153 13.5565 7.84778 13.0771 8.1159ZM9.52274 4.8984C8.74211 5.7184 9.43274 5.01153 7.70649 6.8059L2.17774 0.93965C2.80336 0.995275 4.76711 2.26278 9.52274 4.8984Z" fill="white"/>
</g>
<defs>
<clipPath id="clip0">
<rect width="15" height="15" fill="white"/>
</clipPath>
</defs>
</svg>
