<svg width="35" height="35" viewBox="0 0 35 35" fill="none" xmlns="http://www.w3.org/2000/svg">
<path d="M28.8029 3.22949H6.10963C5.8202 3.22949 5.58594 3.46376 5.58594 3.75318V30.9851C5.58594 31.2742 5.8202 31.5088 6.10963 31.5088H28.8029C29.092 31.5088 29.3266 31.2742 29.3266 30.9851V3.75318C29.3266 3.46376 29.092 3.22949 28.8029 3.22949ZM28.2792 30.4614H6.63332V4.27687H28.2792V30.4614Z" fill="#3E9E57"/>
<path d="M15.885 11.6084H24.2641C24.5531 11.6084 24.7878 11.3742 24.7878 11.0847C24.7878 10.7953 24.5531 10.561 24.2641 10.561H15.885C15.5956 10.561 15.3613 10.7953 15.3613 11.0847C15.3613 11.3742 15.5956 11.6084 15.885 11.6084Z" fill="#3E9E57"/>
<path d="M15.885 17.8926H24.2641C24.5531 17.8926 24.7878 17.6583 24.7878 17.3689C24.7878 17.0795 24.5531 16.8452 24.2641 16.8452H15.885C15.5956 16.8452 15.3613 17.0795 15.3613 17.3689C15.3613 17.6583 15.5956 17.8926 15.885 17.8926Z" fill="#3E9E57"/>
<path d="M15.885 24.1773H24.2641C24.5531 24.1773 24.7878 23.9427 24.7878 23.6536C24.7878 23.3645 24.5531 23.1299 24.2641 23.1299H15.885C15.5956 23.1299 15.3613 23.3645 15.3613 23.6536C15.3613 23.9427 15.5956 24.1773 15.885 24.1773Z" fill="#3E9E57"/>
<path d="M10.5241 12.9547C10.8634 13.2162 11.2705 13.3541 11.6919 13.3541C11.775 13.3541 11.8591 13.3485 11.9429 13.3377C12.4516 13.2717 12.9041 13.0116 13.2169 12.6055C13.5297 12.1995 13.6662 11.6954 13.5999 11.187C13.5339 10.6784 13.2738 10.2259 12.8678 9.91308C12.4614 9.59991 11.9569 9.46375 11.4493 9.53008C10.9406 9.59607 10.4881 9.85617 10.1753 10.2622C9.86248 10.6682 9.72562 11.172 9.79161 11.6807C9.85759 12.1894 10.1177 12.6419 10.5241 12.9547ZM11.0045 10.9015C11.1466 10.7168 11.3526 10.5984 11.5837 10.5684C11.6217 10.5635 11.6598 10.5611 11.6978 10.5611C11.8892 10.5611 12.0745 10.6239 12.2285 10.7426C12.4132 10.8847 12.5316 11.0907 12.5616 11.3218C12.5913 11.5529 12.5298 11.782 12.3874 11.9666C12.2453 12.1513 12.0393 12.2697 11.8082 12.2997C11.5763 12.3294 11.348 12.2679 11.1633 12.1255C10.9786 11.9834 10.8603 11.7774 10.8303 11.5463C10.8006 11.3148 10.862 11.0858 11.0045 10.9015Z" fill="#3E9E57"/>
<path d="M11.6956 19.2891C12.7545 19.2891 13.6158 18.4275 13.6158 17.3689C13.6158 16.31 12.7545 15.4487 11.6956 15.4487C10.6367 15.4487 9.77539 16.31 9.77539 17.3689C9.77539 18.4275 10.6367 19.2891 11.6956 19.2891ZM11.6956 16.4961C12.1767 16.4961 12.5684 16.8878 12.5684 17.3689C12.5684 17.8504 12.1767 18.2417 11.6956 18.2417C11.2145 18.2417 10.8228 17.8504 10.8228 17.3689C10.8228 16.8878 11.2145 16.4961 11.6956 16.4961Z" fill="#3E9E57"/>
<path d="M11.6956 25.5738C12.7545 25.5738 13.6158 24.7122 13.6158 23.6536C13.6158 22.595 12.7545 21.7334 11.6956 21.7334C10.6367 21.7334 9.77539 22.595 9.77539 23.6536C9.77539 24.7122 10.6367 25.5738 11.6956 25.5738ZM11.6956 22.7808C12.1767 22.7808 12.5684 23.1722 12.5684 23.6536C12.5684 24.135 12.1767 24.5264 11.6956 24.5264C11.2145 24.5264 10.8228 24.135 10.8228 23.6536C10.8228 23.1722 11.2145 22.7808 11.6956 22.7808Z" fill="#3E9E57"/>
</svg>
