<svg width="50" height="50" viewBox="0 0 50 50" fill="none" xmlns="http://www.w3.org/2000/svg">
<path d="M25.1438 28.7661C15.4276 28.7661 7.52246 36.6717 7.52246 46.3894C7.52246 46.802 7.85678 47.1368 8.26982 47.1368H42.0177C42.4302 47.1368 42.7651 46.802 42.7651 46.3894C42.7651 36.6717 34.8605 28.7661 25.1438 28.7661ZM9.03412 45.642C9.42574 37.0942 16.5018 30.2608 25.1438 30.2608C33.7858 30.2608 40.8623 37.0942 41.2534 45.642H9.03412Z" fill="#3E9E57"/>
<path d="M24.8498 6.66602C19.2555 6.66602 14.7041 11.2175 14.7041 16.8117C14.7041 22.406 19.2555 26.9574 24.8498 26.9574C30.4445 26.9574 34.9955 22.406 34.9955 16.8117C34.9955 11.2175 30.444 6.66602 24.8498 6.66602ZM24.8498 25.4627C20.0796 25.4627 16.1988 21.5819 16.1988 16.8117C16.1988 12.0415 20.0796 8.16074 24.8498 8.16074C29.6199 8.16074 33.5007 12.0415 33.5007 16.8117C33.5007 21.5819 29.6199 25.4627 24.8498 25.4627Z" fill="#3E9E57"/>
<path d="M12.5244 22.3655C12.9375 22.3655 13.2718 22.0312 13.2718 21.6182V11.9463C13.2718 11.8985 13.2663 11.8521 13.2579 11.8068C15.2603 7.1637 19.7619 4.18173 24.8504 4.18173C30.0302 4.18173 34.607 7.27182 36.5521 12.0619V21.5619C35.9253 23.1054 35.0151 24.4935 33.8367 25.6873C33.5467 25.9813 33.5497 26.4541 33.8437 26.7441C33.9892 26.8881 34.179 26.9598 34.3688 26.9598C34.5617 26.9598 34.7545 26.8856 34.9005 26.7376C36.156 25.4656 37.1401 23.9953 37.8366 22.366H38.3617C41.4404 22.366 43.945 19.8614 43.945 16.7827C43.945 13.7041 41.4404 11.1995 38.3617 11.1995H37.8047C35.5611 6.01625 30.5324 2.6875 24.8504 2.6875C19.1655 2.6875 14.1363 6.01575 11.8937 11.1995H11.4622C8.38356 11.1995 5.87891 13.7041 5.87891 16.7827C5.87891 19.8614 8.38356 22.366 11.4622 22.366H12.5244V22.3655ZM42.4503 16.7822C42.4503 19.0368 40.6158 20.8708 38.3617 20.8708H38.0469V12.6937H38.3617C40.6163 12.6937 42.4503 14.5277 42.4503 16.7822ZM7.37363 16.7822C7.37363 14.5277 9.20766 12.6937 11.4622 12.6937H11.7771V20.8708H11.4622C9.20766 20.8708 7.37363 19.0368 7.37363 16.7822Z" fill="#3E9E57"/>
</svg>
