<svg width="50" height="50" viewBox="0 0 50 50" fill="none" xmlns="http://www.w3.org/2000/svg">
<path d="M20.8065 22.6118C16.9745 22.6118 13.8564 25.7298 13.8564 29.5619C13.8564 33.3939 16.974 36.5114 20.8065 36.5114C24.639 36.5114 27.7565 33.3939 27.7565 29.5619C27.7565 25.7298 24.6385 22.6118 20.8065 22.6118ZM20.8065 35.0172C17.7986 35.0172 15.3512 32.5703 15.3512 29.5624C15.3512 26.5544 17.7986 24.1071 20.8065 24.1071C23.8149 24.1071 26.2618 26.5544 26.2618 29.5624C26.2618 32.5703 23.8144 35.0172 20.8065 35.0172Z" fill="#3E9E57"/>
<path d="M6.17803 22.6123C5.76499 22.6123 5.43066 22.9466 5.43066 23.3597V35.764C5.43066 36.1766 5.76499 36.5114 6.17803 36.5114C6.59108 36.5114 6.9254 36.1766 6.9254 35.764V23.3597C6.9254 22.9466 6.59108 22.6123 6.17803 22.6123Z" fill="#3E9E57"/>
<path d="M35.2005 22.6123C34.7879 22.6123 34.4531 22.9466 34.4531 23.3597V35.764C34.4531 36.1766 34.7879 36.5114 35.2005 36.5114C35.613 36.5114 35.9479 36.1766 35.9479 35.764V23.3597C35.9479 22.9466 35.6135 22.6123 35.2005 22.6123Z" fill="#3E9E57"/>
<path d="M47.4766 9.5376H10.8963C10.4833 9.5376 10.149 9.87192 10.149 10.285V13.9815H6.80076C6.38772 13.9815 6.05339 14.3158 6.05339 14.7288V18.8384H2.34893C1.93589 18.8384 1.60156 19.1727 1.60156 19.5857V39.539C1.60156 39.9515 1.93589 40.2864 2.34893 40.2864H38.9297C39.3422 40.2864 39.677 39.9515 39.677 39.539V35.4295H43.382C43.7945 35.4295 44.1294 35.0946 44.1294 34.6821V30.9856H47.4771C47.8896 30.9856 48.2245 30.6508 48.2245 30.2382V10.285C48.224 9.87192 47.8891 9.5376 47.4766 9.5376ZM3.0963 38.7916V20.3331H38.1823V34.6771C38.1823 34.6786 38.1818 34.6801 38.1818 34.6821C38.1818 34.6841 38.1823 34.6851 38.1823 34.6871V38.7916H3.0963ZM42.6341 33.9347H39.6765V19.5857C39.6765 19.1727 39.3417 18.8384 38.9292 18.8384H7.54813V15.4762H42.6341V33.9347ZM46.7292 29.4909H44.1289V14.7288C44.1289 14.3158 43.7941 13.9815 43.3815 13.9815H11.6437V11.0323H46.7292V29.4909Z" fill="#3E9E57"/>
</svg>
