<svg width="80" height="80" viewBox="0 0 80 80" fill="none" xmlns="http://www.w3.org/2000/svg">
<path d="M71.1628 7.64331H8.83758C8.17768 7.64331 7.64355 8.17824 7.64355 8.83734V71.1625C7.64355 71.8216 8.17768 72.3566 8.83758 72.3566H32.668C33.3279 72.3566 33.8621 71.8216 33.8621 71.1625C33.8621 70.5034 33.3279 69.9685 32.668 69.9685H10.0316V51.5183H22.2529C22.9128 51.5183 23.4469 50.9834 23.4469 50.3243C23.4469 49.6652 22.9128 49.1303 22.2529 49.1303H10.0316V10.0314H40.3982V28.8748C40.3982 29.5339 40.9323 30.0688 41.5922 30.0688C42.2521 30.0688 42.7862 29.5339 42.7862 28.8748V10.0314H69.9687V39.5351H31.4286C30.7687 39.5351 30.2346 40.07 30.2346 40.7291C30.2346 41.3882 30.7687 41.9231 31.4286 41.9231H69.9687V69.9677H52.6354L43.6961 56.9512C43.3236 56.4083 42.5793 56.269 42.0364 56.6431C41.4927 57.0164 41.355 57.7591 41.7283 58.3036L51.0235 71.8376C51.2463 72.1615 51.6141 72.355 52.0073 72.355H71.1636C71.8235 72.355 72.3576 71.82 72.3576 71.1609V8.83734C72.3568 8.17824 71.8227 7.64331 71.1628 7.64331Z" fill="#3E9E57"/>
</svg>
