<svg width="50" height="50" viewBox="0 0 50 50" fill="none" xmlns="http://www.w3.org/2000/svg">
<path d="M4.095 19.8258C4.16276 19.8447 4.23102 19.8542 4.29828 19.8542C4.62414 19.8542 4.92408 19.6389 5.01725 19.3096C6.8518 12.8075 11.8671 7.56794 18.2322 5.40455L17.1899 8.20171C17.0459 8.58834 17.2427 9.01883 17.6294 9.16332C17.7156 9.19521 17.8037 9.21065 17.8904 9.21065C18.1934 9.21065 18.4789 9.02481 18.591 8.72387L20.2332 4.31688C20.3767 3.93124 20.1819 3.50225 19.7972 3.35676L15.318 1.66372C14.9314 1.51773 14.5004 1.71255 14.3544 2.09869C14.2089 2.48483 14.4032 2.91631 14.7894 3.0623L17.4759 4.07772C10.7795 6.45436 5.52048 12.0238 3.57931 18.904C3.46671 19.3006 3.6974 19.7137 4.095 19.8258Z" fill="#3E9E57"/>
<path d="M19.2248 44.7465C12.7192 42.904 7.47811 37.8717 5.32568 31.4941L8.27032 32.5394C8.65895 32.679 9.08644 32.4742 9.22496 32.0855C9.36347 31.6969 9.15969 31.2689 8.77056 31.1314L4.33866 29.5579C3.95002 29.4189 3.52502 29.6222 3.38551 30.0084L1.76222 34.5135C1.62222 34.9016 1.82401 35.3306 2.21214 35.4701C2.29585 35.5005 2.38105 35.5145 2.46525 35.5145C2.77117 35.5145 3.05866 35.3251 3.16828 35.0207L4.08405 32.4797C6.49556 39.0789 12.0131 44.2582 18.8177 46.1854C18.886 46.2048 18.9542 46.2138 19.022 46.2138C19.3478 46.2138 19.6473 45.9991 19.7404 45.6702C19.853 45.2721 19.6219 44.8586 19.2248 44.7465Z" fill="#3E9E57"/>
<path d="M45.6057 30.0213C45.2101 29.9072 44.7955 30.1389 44.6829 30.537C42.8469 37.0286 37.838 42.2612 31.4834 44.4256L32.7798 41.5029C32.9472 41.1252 32.7768 40.6838 32.3996 40.5168C32.02 40.3484 31.58 40.5198 31.4136 40.897L29.5068 45.1964C29.3399 45.5725 29.5083 46.013 29.884 46.1814L34.2526 48.1435C34.3518 48.1883 34.4559 48.2093 34.558 48.2093C34.843 48.2093 35.1156 48.0453 35.2401 47.7678C35.4095 47.3916 35.2411 46.9487 34.8645 46.7803L32.4201 45.6822C39.0188 43.2696 44.1966 37.7516 46.1218 30.9445C46.234 30.5469 46.0028 30.1339 45.6057 30.0213Z" fill="#3E9E57"/>
<path d="M47.6668 14.0588C47.2896 13.8894 46.8477 14.0573 46.6788 14.433L45.4999 17.0503C43.0306 10.598 37.5838 5.54628 30.8854 3.64896C30.4893 3.53686 30.0752 3.76705 29.9621 4.16465C29.8495 4.56175 30.0802 4.9748 30.4773 5.0874C36.7791 6.87162 41.8946 11.6498 44.1661 17.7434L41.3989 16.5127C41.0207 16.3448 40.5798 16.5147 40.4128 16.8918C40.2449 17.269 40.4148 17.7105 40.792 17.8784L45.0894 19.7896C45.188 19.8335 45.2912 19.8544 45.3923 19.8544C45.6773 19.8544 45.9494 19.6905 46.0739 19.414L48.041 15.0473C48.2109 14.6712 48.043 14.2282 47.6668 14.0588Z" fill="#3E9E57"/>
<path d="M31.04 30.7985C31.0664 30.7726 31.0908 30.7467 31.1088 30.7243C32.7943 28.5863 34.306 22.714 34.5337 21.2247C34.7714 19.6602 35.6089 14.2787 35.6089 14.2782C35.6573 13.9668 35.4993 13.6643 35.2228 13.5129C34.9468 13.3619 34.599 13.4057 34.3628 13.615C34.3558 13.621 33.6603 14.2224 31.1058 15.2184C28.4202 16.2657 20.8479 19.8037 20.4852 19.9751C17.9396 21.3662 16.3577 24.0084 16.3577 26.8699C16.3577 28.8584 17.1036 30.672 18.3228 32.0606L16.1659 34.5508C15.8958 34.8632 15.9292 35.3351 16.2416 35.6051C16.3831 35.7277 16.557 35.7875 16.7304 35.7875C16.9396 35.7875 17.1479 35.6998 17.2954 35.5294L19.4109 33.0865C20.7467 34.1268 22.4204 34.7526 24.2409 34.7526C27.0336 34.7531 29.626 33.2414 31.04 30.7985ZM17.8524 26.8699C17.8524 24.555 19.1359 22.4155 21.1598 21.3079C21.238 21.2716 29.0082 17.6403 31.6484 16.611C31.6788 16.599 31.7037 16.5885 31.7336 16.5766L19.3073 30.9236C18.399 29.82 17.8524 28.4074 17.8524 26.8699ZM24.2414 33.2584C22.795 33.2584 21.4632 32.7696 20.391 31.9559L33.745 16.5377C33.4919 18.168 33.185 20.148 33.0559 20.999C32.7948 22.709 31.2986 27.9844 29.9812 29.7383C29.9533 29.7617 29.9274 29.7856 29.9085 29.8055C29.8666 29.8504 29.8308 29.8997 29.8009 29.953C28.6664 31.9918 26.5364 33.2584 24.2414 33.2584Z" fill="#3E9E57"/>
</svg>
