<svg width="30" height="30" viewBox="0 0 30 30" fill="none" xmlns="http://www.w3.org/2000/svg">
<path d="M25.0375 21.8463C24.4474 22.4365 24.871 23.4462 25.7002 23.4462C26.5286 23.4462 26.9537 22.4371 26.3629 21.8463C25.9967 21.48 25.4038 21.48 25.0375 21.8463ZM27.9976 20.2117C28.1927 20.4069 28.1927 20.7234 27.9976 20.9186C27.8024 21.1137 27.486 21.1139 27.2907 20.9186C26.4117 20.0396 24.9888 20.0395 24.1098 20.9186C23.9146 21.1138 23.5982 21.1138 23.403 20.9186C23.2078 20.7234 23.2078 20.407 23.403 20.2117C24.6726 18.9421 26.7277 18.9418 27.9976 20.2117ZM29.4996 19.2094C29.3717 19.2094 29.2438 19.1606 29.1462 19.063C27.2417 17.1585 24.1589 17.1583 22.2543 19.063C22.059 19.2583 21.7427 19.2582 21.5474 19.063C21.3522 18.8679 21.3522 18.5513 21.5474 18.3562C23.8427 16.0609 27.5575 16.0607 29.8531 18.3562C30.1684 18.6715 29.9416 19.2094 29.4996 19.2094ZM25.4288 25.4654C25.4288 27.119 24.0835 28.4644 22.4299 28.4644H6.24791C4.59423 28.4644 3.24894 27.119 3.24894 25.4654V10.3149L0.771921 11.922C0.540375 12.0723 0.230857 12.0063 0.080596 11.7747C-0.0696649 11.5431 -0.00375003 11.2336 0.227795 11.0834L11.876 3.52595C13.3444 2.57328 15.2418 2.57328 16.7101 3.52595L19.6183 5.4128V2.53579C19.3423 2.53579 19.1185 2.31199 19.1185 2.03596C19.1185 1.75993 19.3423 1.53613 19.6183 1.53613H24.929C25.205 1.53613 25.4288 1.75993 25.4288 2.03596C25.4288 2.31199 25.205 2.53579 24.929 2.53579H24.8665V5.90963C24.8665 6.18566 24.6427 6.40946 24.3667 6.40946C24.0907 6.40946 23.8669 6.18566 23.8669 5.90963V2.53579H20.618V6.06139L28.3584 11.0834C28.7759 11.3543 28.5808 12.0026 28.0858 12.0026C27.8667 12.0026 28.657 12.4688 16.1661 4.36454C15.0283 3.62641 13.5581 3.62635 12.4202 4.36454L4.2486 9.66634V25.4654C4.2486 26.5678 5.14548 27.4647 6.24791 27.4647H18.1188V19.1846C18.1188 18.5826 17.6291 18.0929 17.0271 18.0929H11.5881C10.9862 18.0929 10.4964 18.5826 10.4964 19.1846V25.4029C10.4964 25.679 10.2726 25.9028 9.99656 25.9028C9.72053 25.9028 9.49674 25.679 9.49674 25.4029V19.1846C9.49674 18.0315 10.435 17.0933 11.5881 17.0933H17.0271C18.1803 17.0933 19.1185 18.0315 19.1185 19.1846V27.4647H22.4299C23.5323 27.4647 24.4292 26.5678 24.4292 25.4654C24.4292 25.1894 24.653 24.9656 24.929 24.9656C25.205 24.9656 25.4288 25.1894 25.4288 25.4654ZM24.929 12.095C25.205 12.095 25.4288 12.3188 25.4288 12.5948V14.6254C25.4288 14.9014 25.205 15.1252 24.929 15.1252C24.653 15.1252 24.4292 14.9014 24.4292 14.6254V12.5948C24.4292 12.3188 24.653 12.095 24.929 12.095Z" fill="#3E9E57"/>
</svg>
