<svg width="30" height="30" viewBox="0 0 30 30" fill="none" xmlns="http://www.w3.org/2000/svg">
<path d="M29.5 15C29.5 23.0081 23.0081 29.5 15 29.5C6.99187 29.5 0.5 23.0081 0.5 15C0.5 6.99187 6.99187 0.5 15 0.5C23.0081 0.5 29.5 6.99187 29.5 15Z" stroke="white"/>
<path d="M21.5224 11.8297L21.5279 11.8242L19.4165 21.7713C19.3392 22.118 19.2287 22.1845 19.2093 22.1933C19.1924 22.2009 19.0864 22.2359 18.8211 22.0911L15.0967 19.3462L14.7571 19.0959L14.4532 19.3887L12.7974 20.9838L12.9861 18.2796L19.7845 12.1379C19.8931 12.0416 20.0532 11.8634 20.0619 11.6089C20.0732 11.2773 19.8358 11.0864 19.6506 11.0197C19.48 10.9583 19.3029 10.9685 19.1606 11C19.0112 11.033 18.8587 11.0983 18.714 11.1936L10.3251 16.4753L6.84504 15.3897C6.84468 15.3895 6.84432 15.3894 6.84397 15.3893C6.77641 15.3678 6.724 15.3461 6.68411 15.3264C6.75793 15.273 6.87371 15.2081 7.04484 15.1411C7.04519 15.1409 7.04553 15.1408 7.04588 15.1407L21.5007 9.5674C21.714 9.49159 21.8058 9.5504 21.8306 9.57462C21.8617 9.60489 21.9674 9.75298 21.8774 10.1727L21.5224 11.8297ZM19.3885 11.9744C19.3885 11.9745 19.3871 11.9747 19.3845 11.9748C19.3872 11.9744 19.3886 11.9744 19.3885 11.9744ZM19.1319 11.3789C19.1321 11.3789 19.1302 11.3812 19.1252 11.3858C19.1291 11.3812 19.1316 11.3789 19.1319 11.3789ZM6.59156 15.4117C6.59152 15.4117 6.59181 15.4112 6.59253 15.41C6.59195 15.4112 6.59159 15.4117 6.59156 15.4117Z" stroke="white"/>
</svg>
