<svg width="50" height="50" viewBox="0 0 50 50" fill="none" xmlns="http://www.w3.org/2000/svg">
<path d="M19.6877 42.6682C21.6682 43.7773 23.6189 44.3343 25.436 44.3343C26.9571 44.3338 28.3846 43.9432 29.6551 43.159L34.3381 40.2701C34.507 40.166 34.6276 39.9996 34.6735 39.8063C34.7193 39.6134 34.6859 39.4102 34.5818 39.2413L30.5226 32.6624C30.4184 32.494 30.2515 32.3734 30.0587 32.3276C29.8644 32.2823 29.6621 32.3151 29.4937 32.4193L24.7753 35.3315C24.0499 35.7789 23.1191 35.9219 22.2238 35.7251C21.3284 35.5278 20.5641 35.0087 20.1267 34.2991L13.7137 23.9062C12.7865 22.4035 13.2539 20.4265 14.7556 19.4992C14.7556 19.4992 14.7561 19.4992 14.7561 19.4987L19.6533 16.4754C20.0046 16.2587 20.1132 15.7983 19.8965 15.447L15.8368 8.86966C15.62 8.5184 15.1591 8.40828 14.8084 8.62602L9.91511 11.6464C4.4613 15.0125 4.65263 23.8489 10.3815 33.1352C13.0077 37.3933 16.3131 40.7788 19.6877 42.6682ZM10.7008 12.9179L14.9579 10.2907L18.2328 15.596L13.9713 18.2267C13.9703 18.2272 13.9698 18.2277 13.9693 18.2282C11.7681 19.5889 11.0825 22.4872 12.4422 24.6905L18.8551 35.0829C19.5034 36.1347 20.6144 36.9005 21.9029 37.1845C23.1739 37.463 24.5077 37.2523 25.5605 36.6025L29.6427 34.0829L32.9171 39.3892L28.8699 41.8859C25.9143 43.7095 22.6423 42.6084 20.4181 41.3633C17.2617 39.5955 14.1487 36.3948 11.6535 32.35C6.38703 23.8131 5.9954 15.8222 10.7008 12.9179Z" fill="#3E9E57"/>
<path d="M24.7034 16.7171C27.1218 16.8601 29.2623 18.1027 30.5767 20.1271C31.8333 22.0563 32.1357 24.4205 31.4058 26.6138C31.2752 27.0054 31.487 27.4289 31.8786 27.5584C31.9568 27.5848 32.036 27.5968 32.1148 27.5968C32.4282 27.5968 32.7196 27.399 32.8238 27.0856C33.6987 24.4578 33.336 21.6238 31.8298 19.312C30.2782 16.9214 27.6465 15.3932 24.7915 15.2243C24.3755 15.2069 24.0257 15.5143 24.0013 15.9264C23.9769 16.3389 24.2913 16.6927 24.7034 16.7171Z" fill="#3E9E57"/>
<path d="M25.7491 11.1699C29.6653 11.6199 33.1416 13.7688 35.2865 17.0647C37.3647 20.2599 37.9536 24.1941 36.9018 27.8587C36.7877 28.2558 37.0169 28.6693 37.4135 28.7829C37.4828 28.8029 37.5516 28.8123 37.6203 28.8123C37.9447 28.8123 38.2441 28.5986 38.3378 28.2712C39.5092 24.1901 38.8535 19.808 36.5391 16.2496C34.1505 12.579 30.2802 10.1864 25.9195 9.68517C25.5174 9.63784 25.1392 9.9323 25.0919 10.3424C25.0446 10.7524 25.3385 11.1226 25.7491 11.1699Z" fill="#3E9E57"/>
<path d="M26.7715 6.28385C31.9727 7.0068 36.5974 9.94645 39.4604 14.3495C42.265 18.6578 43.106 23.9791 41.7687 28.9486C41.6611 29.3472 41.8978 29.7572 42.2964 29.8643C42.3611 29.8818 42.4269 29.8903 42.4912 29.8903C42.8205 29.8903 43.123 29.671 43.2121 29.3372C44.66 23.9581 43.7493 18.1979 40.7134 13.5343C37.6143 8.7686 32.608 5.5863 26.9783 4.80356C26.5712 4.74925 26.1916 5.03175 26.1353 5.44081C26.078 5.84938 26.363 6.22705 26.7715 6.28385Z" fill="#3E9E57"/>
</svg>
