<svg width="80" height="80" viewBox="0 0 80 80" fill="none" xmlns="http://www.w3.org/2000/svg">
<path d="M22.872 15.9702C24.1135 15.9702 25.1199 14.9638 25.1199 13.7223C25.1199 12.4808 24.1135 11.4744 22.872 11.4744C21.6305 11.4744 20.624 12.4808 20.624 13.7223C20.624 14.9638 21.6305 15.9702 22.872 15.9702Z" fill="#3E9E57"/>
<path d="M75.469 41.4633L60.6212 7.06846C60.433 6.63253 60.0034 6.34985 59.5278 6.34985H59.527C59.0506 6.34985 58.621 6.63333 58.4336 7.07085L43.6739 41.4292C43.5159 41.7968 43.5532 42.22 43.7731 42.5543C43.9931 42.8886 44.3663 43.0903 44.7665 43.0911L57.653 43.1078C57.6824 43.1101 57.7118 43.1109 57.7412 43.1109L58.2724 43.1117V52.4846L55.34 52.4807C55.34 52.4807 55.3392 52.4807 55.3384 52.4807C54.6809 52.4807 54.1481 53.0127 54.1473 53.6702L54.1219 72.57C54.1211 73.2275 54.6531 73.7611 55.3114 73.7626L63.7457 73.7769C63.7465 73.7769 63.7473 73.7769 63.7481 73.7769C64.0634 73.7769 64.3659 73.6515 64.5898 73.4292C64.8129 73.206 64.9392 72.9027 64.9392 72.5867L64.9582 53.6836C64.959 53.0262 64.4262 52.4926 63.7688 52.4918L60.6553 52.4878V43.1141L74.3748 43.1276C74.3756 43.1276 74.3756 43.1276 74.3764 43.1276C74.7774 43.1276 75.1514 42.9259 75.3713 42.5916C75.5905 42.255 75.6278 41.8317 75.469 41.4633ZM62.5571 71.3916L56.5048 71.3813L56.5271 54.8628L62.5729 54.8707L62.5571 71.3916ZM60.6537 40.7304V27.211C60.6537 26.5527 60.1201 26.0199 59.4627 26.0199C58.8052 26.0199 58.2716 26.5527 58.2716 27.211V40.728H57.9254C57.8968 40.7264 57.8674 40.7248 57.838 40.7248L46.5745 40.7105L59.5294 10.5527L72.5628 40.7431L60.6537 40.7304Z" fill="#3E9E57"/>
<path d="M40.7125 35.6511H32.1321C29.7563 35.6511 27.8244 33.7192 27.8244 31.3442C27.8244 29.5028 28.7796 25.7065 29.7031 22.0348C30.4471 19.0794 31.1491 16.2876 31.4095 14.3366C31.6827 12.3157 31.049 10.3044 29.6245 8.67584C27.957 6.76854 25.4335 5.62988 22.8735 5.62988C20.3088 5.62988 17.7813 6.77013 16.1146 8.67981C14.6925 10.3084 14.0612 12.3189 14.3367 14.3374C14.6035 16.3161 15.3468 19.1445 16.1345 22.1389C17.0897 25.7708 18.0767 29.5259 18.0767 31.345C18.0767 33.72 16.144 35.6519 13.769 35.6519H5.03452C4.37625 35.6519 3.84345 36.1847 3.84345 36.843V47.1298C3.84265 47.1497 3.83789 47.1679 3.83789 47.1878C3.83789 47.2077 3.84265 47.2259 3.84345 47.2458V72.3836C3.84345 73.0419 4.37625 73.5747 5.03452 73.5747H40.7117C41.37 73.5747 41.9028 73.0419 41.9028 72.3836V36.8438C41.9036 36.1839 41.3708 35.6511 40.7125 35.6511ZM13.7698 38.0333C17.4589 38.0333 20.4596 35.0326 20.4596 31.3442C20.4596 29.2178 19.4782 25.485 18.4388 21.533C17.7043 18.7396 16.9452 15.8516 16.6974 14.0166C16.5156 12.6881 16.946 11.3494 17.9092 10.2457C19.1121 8.868 21.0147 8.01202 22.8735 8.01202C24.7284 8.01202 26.6286 8.8672 27.8315 10.2441C28.7963 11.3478 29.2291 12.6881 29.0488 14.0198C28.8058 15.8389 28.088 18.6935 27.3932 21.4544C26.3896 25.4421 25.4423 29.2082 25.4423 31.345C25.4423 35.0334 28.4437 38.0341 32.1321 38.0341H39.5215V45.9967H6.22638V38.0341H13.7698V38.0333ZM6.22638 71.191V48.3781H39.5215V71.191H6.22638Z" fill="#3E9E57"/>
</svg>
