<svg width="33" height="23" viewBox="0 0 33 23" fill="none" xmlns="http://www.w3.org/2000/svg">
<path d="M32.5346 1.12021C32.5346 0.830065 32.2994 0.595215 32.0096 0.595215H18.1465H16.569H0.989844C0.699694 0.595215 0.464844 0.830065 0.464844 1.12021V10.1779C0.464844 10.2031 0.468694 10.2272 0.472194 10.2514C0.468694 10.2755 0.464844 10.2997 0.464844 10.3249V21.8798C0.464844 22.1696 0.699694 22.4048 0.989844 22.4048H16.569H32.0096C32.2994 22.4048 32.5346 22.1696 32.5346 21.8798V10.2703C32.5346 10.2545 32.5315 10.2395 32.5301 10.2241C32.5315 10.2087 32.5346 10.1936 32.5346 10.1779V1.12021ZM18.1465 1.64521H31.4846V9.65287H27.2769L24.7415 5.38041C24.6467 5.22116 24.4752 5.12352 24.29 5.12352C24.1049 5.12352 23.933 5.22116 23.8385 5.38041L21.3024 9.65287H18.1465H17.094V1.64521H18.1465ZM1.51484 1.64521H16.044V9.65287H11.6974L9.16094 5.38041C9.06609 5.22081 8.89459 5.12352 8.70944 5.12352C8.52394 5.12352 8.35244 5.22116 8.25794 5.38041L5.72289 9.65287H1.51484V1.64521ZM1.51484 10.7029H6.02179C6.20694 10.7029 6.37879 10.6052 6.47329 10.446L8.70979 6.67717L10.947 10.446C11.0418 10.6052 11.2133 10.7029 11.3985 10.7029H16.044V21.3551H1.51484V10.7029ZM17.094 21.3551V10.7029H18.1465H21.601C21.7861 10.7029 21.958 10.6052 22.0525 10.446L24.29 6.67717L26.5265 10.446C26.6214 10.6052 26.7929 10.7029 26.978 10.7029H31.485V21.3551H17.094Z" fill="white"/>
<path d="M26.1917 13.6826H22.3883C22.0985 13.6826 21.8633 13.9178 21.8633 14.2076V18.212C21.8633 18.5018 22.0985 18.737 22.3883 18.737H26.1917C26.4815 18.737 26.7167 18.5018 26.7167 18.212V14.2076C26.7167 13.9178 26.4819 13.6826 26.1917 13.6826ZM25.6667 17.6873H22.9133V14.733H25.6667V17.6873Z" fill="white"/>
<path d="M10.682 13.6821H6.87754C6.58739 13.6821 6.35254 13.9173 6.35254 14.2071V18.2118C6.35254 18.5016 6.58739 18.7368 6.87754 18.7368H10.682C10.9722 18.7368 11.207 18.5016 11.207 18.2118V14.2071C11.207 13.9173 10.9722 13.6821 10.682 13.6821ZM10.157 17.6872H7.40254V14.7325H10.157V17.6872Z" fill="white"/>
</svg>
