<svg width="30" height="30" viewBox="0 0 30 30" fill="none" xmlns="http://www.w3.org/2000/svg">
<path d="M3.32966 23.9509L3.41175 23.7062L3.25982 23.4976C1.52201 21.111 0.5 18.1722 0.5 15C0.5 7.00352 7.00189 0.5 14.9963 0.5H15.0037C22.9981 0.5 29.5 7.00535 29.5 15C29.5 22.9946 22.9981 29.5 15.0037 29.5C12.0541 29.5 9.32036 28.623 7.02801 27.1044L6.82807 26.972L6.59963 27.045L1.77423 28.5876L3.32966 23.9509Z" stroke="white"/>
<path d="M15.7259 21.7081L15.726 21.7081C17.4327 22.4157 18.509 22.7233 19.2382 22.8389C19.9456 22.9511 20.3333 22.8844 20.6835 22.8099C21.1911 22.7001 21.7772 22.4527 22.2738 22.1166C22.7797 21.7743 23.1305 21.3825 23.2607 21.015C23.4273 20.5437 23.5089 20.1114 23.5374 19.7836C23.5517 19.6192 23.552 19.4883 23.5453 19.3968C23.5438 19.3771 23.5422 19.361 23.5406 19.348C23.5232 19.3362 23.4961 19.3191 23.4552 19.2968C23.3799 19.2556 23.3031 19.2188 23.2059 19.1721C23.1289 19.1352 23.0391 19.0921 22.9272 19.036C22.7073 18.9265 22.064 18.6081 21.4256 18.2998C20.7678 17.982 20.1655 17.6999 19.998 17.6417L19.9854 17.6373L19.9855 17.6372C19.8512 17.5865 19.7662 17.5874 19.7133 17.6012C19.6671 17.6132 19.5899 17.6489 19.4939 17.7845L19.4926 17.7862C19.4373 17.8637 19.3814 17.9424 19.3252 18.0215C18.9667 18.526 18.595 19.0491 18.2805 19.3881L18.2782 19.3906C17.8314 19.8659 17.1585 19.8815 16.6649 19.6769L16.664 19.6765C16.6249 19.6602 16.5798 19.642 16.5291 19.6215C15.9448 19.3855 14.6093 18.846 13.0065 17.4191C11.6493 16.211 10.7362 14.7179 10.4748 14.2757L10.4724 14.2717L10.4724 14.2717C10.2827 13.9439 10.2451 13.6204 10.3484 13.3172C10.4295 13.0793 10.5908 12.8915 10.6807 12.7867C10.6863 12.7802 10.6917 12.7739 10.6967 12.768C10.8179 12.6185 10.9345 12.492 11.0431 12.3764C11.0618 12.3564 11.0802 12.337 11.0982 12.3178C11.1883 12.2221 11.2709 12.1344 11.3562 12.0361C11.3677 12.0229 11.3788 12.0101 11.3895 11.9978C11.5887 11.7684 11.665 11.6807 11.7668 11.4634L11.7708 11.4548L11.7752 11.4463C11.7917 11.4144 11.7988 11.3781 11.7898 11.3195C11.7796 11.2532 11.751 11.1753 11.7056 11.0812L11.7041 11.0781L11.7041 11.0781C11.6246 10.9106 11.1532 9.76691 10.7592 8.81103C10.5977 8.41913 10.4492 8.05882 10.3461 7.81029C10.2097 7.48403 10.1298 7.42279 10.1142 7.41256C10.0999 7.4032 10.0748 7.38729 9.8339 7.37704L9.83019 7.37688L9.83019 7.37687C9.81678 7.3762 9.80337 7.37552 9.78996 7.37485C9.64951 7.36775 9.50831 7.36062 9.35266 7.36062C8.85207 7.36062 8.40838 7.5116 8.17616 7.74856L15.7259 21.7081ZM15.7259 21.7081C11.8101 20.0858 9.1682 16.2819 8.57231 15.4239M15.7259 21.7081L8.57231 15.4239M8.57231 15.4239C8.52408 15.3545 8.48926 15.3043 8.46824 15.2762M8.57231 15.4239L8.46824 15.2762M8.46824 15.2762C8.46312 15.2692 8.45729 15.2612 8.4508 15.2524C8.32008 15.074 7.9199 14.5281 7.54224 13.7836C7.13948 12.9895 6.78516 12.013 6.78516 11.0494C6.78516 9.16263 7.69712 8.23559 8.13562 7.78983C8.1496 7.77562 8.16309 7.7619 8.17607 7.74865L8.46824 15.2762Z" stroke="white"/>
</svg>
