<svg width="43" height="7" viewBox="0 0 43 7" fill="none" xmlns="http://www.w3.org/2000/svg">
<path d="M1 2.75C0.585786 2.75 0.25 3.08579 0.25 3.5C0.25 3.91421 0.585786 4.25 1 4.25V2.75ZM43 2.75L1 2.75V4.25L43 4.25V2.75Z" fill="#3A3A3A"/>
<path d="M1 3.5L0.519862 2.92383C0.348867 3.06633 0.25 3.27742 0.25 3.5C0.25 3.72258 0.348867 3.93367 0.519862 4.07617L1 3.5ZM4.48014 1.57617C4.79835 1.31099 4.84134 0.838069 4.57617 0.519862C4.31099 0.201654 3.83807 0.158661 3.51986 0.423834L4.48014 1.57617ZM4.48014 5.42383L1.48014 2.92383L0.519862 4.07617L3.51986 6.57617L4.48014 5.42383ZM1.48014 4.07617L4.48014 1.57617L3.51986 0.423834L0.519862 2.92383L1.48014 4.07617Z" fill="#3A3A3A"/>
</svg>
